<?xml version="1.0" standalone="no"?><!DOCTYPE svg PUBLIC "-//W3C//DTD SVG 1.1//EN"
        "http://www.w3.org/Graphics/SVG/1.1/DTD/svg11.dtd">
<svg class="icon" viewBox="0 0 1024 1024" version="1.1" xmlns="http://www.w3.org/2000/svg"
     width="200" height="200">
    <defs>
        <style type="text/css"></style>
    </defs>
    <path d="M703.587097 268.662366c-5.138351-9.175627-16.516129 0-32.298208-26.792832-9.175627-15.782079-37.803584-13.946953-38.537635-20.553405-1.4681-16.516129 1.101075-57.989964-11.377777-57.989964s-26.792832 27.893907-32.298208 41.473835c-5.505376 13.946953-14.681004 13.579928-26.792832 21.65448-25.691756 16.883154-41.473835 64.596416-35.968459 91.022223-6.973477 13.946953-33.399283 52.484588-75.974193 62.02724-42.941935 9.542652-74.873118 77.075269-92.857348 117.081003-17.984229 40.005735-5.505376 144.607885-1.4681 163.69319 2.202151 9.909677 0.367025 22.755556-1.4681 34.867384-60.55914 110.841577 58.356989 181.677419 192.688172 132.863082 56.521864-20.553405 25.324731-29.362007-25.691757-19.085305-55.420789 11.377778-171.033692-1.4681-144.607885-74.139068 26.425806 5.138351 67.899642 3.670251 78.910394 4.037276 24.590681 0.73405 105.336201 5.138351 120.751255-5.138351 14.313978-32.665233-23.856631-31.931183-40.739785-33.399283 11.377778-5.505376 21.287455-24.957706 21.287455-36.702509 15.048029 33.399283 29.362007 85.149821 78.543369 65.697491 13.946953-5.505376 5.505376-19.45233 5.505377-19.45233s11.010753-1.4681 11.010752-15.048028c0-12.478853-28.994982-5.505376-31.931183-16.516129-2.936201-11.010753-1.4681-108.639427-1.4681-122.58638 0-13.946953 2.936201-37.803584 31.197133-74.506094 34.133333-44.777061 6.606452-133.964158 9.175627-146.075985 2.936201-12.845878 24.957706-16.516129 36.335484-33.032258 7.707527-10.643728 12.111828-26.058781 8.074552-33.399283z m-53.218638 3.67025c-6.973477 0-12.845878-5.505376-12.845878-12.845878 0-6.973477 5.505376-12.845878 12.845878-12.845878s12.845878 5.505376 12.845878 12.845878-5.872401 12.845878-12.845878 12.845878z"
          fill="#d4237a"></path>
</svg>