<svg class="icon" viewBox="0 0 1024 1024" version="1.1" xmlns="http://www.w3.org/2000/svg"
     width="16" height="16">
    <path d="M918.7 461.3c-13.8-15.3-38.2-20-63.6-12.5-17.8 5.3-44.4 19.1-69.4 54.7-24.4 34.7-41.5 81.7-50.9 139.7-12.1 75.1-29.1 129.2-50.4 161-11.8 17.6-22.1 23.7-27.7 25.8l-2.6 10.5c9.6-1.9 27-8.6 43.3-32.2 20.9-30.4 43.6-138.1 54.5-189.9 13.4-63.5 39.3-105.7 77-125.4 46.4-24.2 93.1-4.9 95-4.1 0.2 0.1 0.4 0.1 0.5 0.1 0.4-0.3 1.5-1.7 2-5.1 1-6.5-0.9-16-7.4-22.4l-0.3-0.2zM494.1 923.2c-74.4 0-126.1-15-153.8-44.7-23.7-25.4-24.9-55.9-25.7-74.1-0.1-1.5-0.1-3-0.2-4.3-3.1-62.9 40.7-200 59.4-258.5 4-12.5 7.1-22.3 7.9-25.4l1.2-5.2 173.1-1.2 2 3.6c9.3 16.9 90.8 167.9 93.5 278.7 1 39-8.9 68.6-30.3 90.7-25.5 26.4-66.8 40-122.7 40.4h-4.4z"
          fill="#d4237a"></path>
    <path d="M414.4 663.2c28.7 6.4-49.2 19.4-75.9 23.5-6 24.6-11.3 48.7-14.3 70 38.3-12.2 84.8-35.3 106.5-78 27.6-54.3 1.8-106.3-45.1-151.7-6.3 20.3-21.9 67.3-36.2 118.5 14.5 4.5 41.3 12.4 65 17.7z"
          fill="#d4237a"></path>
    <path d="M658.4 791.9c-1.1-44-14.4-99.1-39.6-163.9-22.9-58.8-47.7-105.1-54.7-117.9l-3.9-7.1-8.1 0.1-163.7 1.1-10.7 0.1-2.5 10.4c-0.1 0.5-0.3 1.2-0.6 2.1 3.8 3.4 7.5 6.8 11 10.2 1.4-4.4 2.3-7.6 2.7-9.2l163.7-1.1c8.1 14.8 22 41.7 36.6 74.6-10.4 1.7-31.2 5-64 9.3-53.2 7.1 67.9 37 84.7 41.1 2.4 6.3 4.7 12.6 6.9 19.1-10.6 6.4-38.8 22.4-58.1 24.2-10.2 1-12.7 6.1-3.8 10.2 20.7 9.4 71.8 22.9 79.1 22.7 6.4 25.7 10.6 51.1 11.2 74.4 1.2 43.1-9.5 123-146 124h-4.5c-160 0-170.5-68.8-172.4-106.7 15.4-13.1 44.7-38.5 54-50 3.5-4.4 1.3-6.3-2.2-5.3-14.8 4-37.4 6.8-50.1 8.1 0.2-1.9 0.5-3.8 0.8-5.7-4.9 1.6-9.6 2.9-14.2 4.2-2 15.6-2.7 28.8-2.2 39.7 0.1 1.3 0.1 2.8 0.2 4.3 0.8 19.2 2.1 51.2 27.5 78.4 13.7 14.7 32.8 26 56.9 33.8 27.1 8.7 61.3 13.1 101.8 13.1h4.6c57.8-0.5 100.7-14.7 127.5-42.5 13.2-13.6 22.4-30.4 27.5-50 3.5-13.9 5-28.8 4.6-45.8z"
          fill="#d4237a"></path>
    <path d="M338.5 686.7c26.7-4.1 104.6-17.1 75.9-23.5-23.7-5.3-50.5-13.2-65-17.7 14.3-51.2 29.9-98.2 36.2-118.5-3.6-3.4-7.2-6.8-11-10.2-1.2 4.3-4 13-7.1 22.8-9.3 29.2-25 78-37.9 127.4-9.9 37.8-16.4 68.9-19.6 93.8 4.6-1.2 9.3-2.6 14.2-4.2 3-21.2 8.3-45.3 14.3-69.9z"
          fill="#d4237a"></path>
    <path d="M521.3 556.7c0-5.6-4.1-10.2-9.5-11-4.6-13.9-17.7-23.9-33.1-23.9-16.6 0-30.4 11.5-34 27-5 1.1-8.8 5.6-8.8 10.9 0 6.1 4.9 11 10.9 11.2 5.4 12.2 17.6 20.7 31.8 20.7 15.4 0 28.5-10 33.1-23.9 5.5-0.8 9.6-5.4 9.6-11z"
          fill="#d4237a"></path>
    <path d="M478.8 595.3c-14.5 0-27.7-8.1-34.3-20.9-7-1.3-12.2-7.3-12.2-14.6 0-6.1 3.8-11.6 9.4-13.8 4.8-16.5 19.7-27.8 37-27.8 15.9 0 30.1 9.7 35.9 24.4 6.1 1.9 10.4 7.6 10.4 14.2s-4.2 12.2-10.4 14.2c-5.7 14.5-19.9 24.3-35.8 24.3z m0-69.8c-14.6 0-27.1 9.9-30.4 24.1l-0.5 2.3-2.3 0.5c-3.4 0.8-5.9 3.8-5.9 7.3 0 4.1 3.2 7.4 7.3 7.5l2.3 0.1 1 2.1c5 11.2 16.2 18.5 28.5 18.5 13.4 0 25.3-8.6 29.6-21.3l0.7-2.1 2.2-0.3c3.7-0.6 6.3-3.7 6.3-7.4s-2.7-6.8-6.3-7.4l-2.2-0.3-0.7-2.1c-4.3-12.9-16.2-21.5-29.6-21.5z"
          fill="#d4237a"></path>
    <path d="M480.3 564.1m-6.2 0a6.2 6.2 0 1 0 12.4 0 6.2 6.2 0 1 0-12.4 0Z" fill="#d4237a"></path>
    <path d="M479 590.3c-7.4-6.5-2.3-23.3-2.1-24.1l3.5 1.1c-1.3 4.2-3.7 16.1 1 20.2l-2.4 2.8zM446 552.3l-2.4-2.8c22-18.7 47.5-19.6 70-2.4l-2.2 2.9c-21-16-44.8-15.2-65.4 2.3z"
          fill="#d4237a"></path>
    <path d="M418.7 910.7c-0.1 1.9-0.8 3.7-2.1 5.1-5.8 6.2-5.9 12-5.4 14.8 0.4 2.3 1.2 3.7 1.8 4.4 2.2-0.8 4.6-0.7 6.7 0.5 2.5 1.4 4 4 4 6.9 0 3.2 2.1 6.4 4 7.2 0.4 0.1 1 0.4 2.4-1.2 2.2-2.4 5.6-3.2 8.7-2 5.6 2.2 10.7 1.3 13-2.2 2.7-4.3 0.5-11-5.8-17.1-1.5-1.5-2.4-3.5-2.4-5.7 0-16.2 0.2-32.8 0.5-48.8 0.6-35 1.1-68.1-2.1-78.6-7.5-24.4-8.8-46.3 7.2-78.5l-52.5 6.1c2.3 10.9 24.6 117 22 189.1z"
          fill="#d4237a"></path>
    <path d="M459.8 872.9c0.7-43.8 1-71.2-2.8-83.5-7-22.8-7.7-40.9 8.5-71.2 2.1-3.8 0.6-8.6-3.2-10.7-3.8-2-8.6-0.6-10.7 3.2-0.9 1.6-1.7 3.2-2.5 4.8-16 32.2-14.7 54.1-7.2 78.5 3.2 10.5 2.7 43.6 2.1 78.6-0.3 16-0.5 32.6-0.5 48.8 0 2.1 0.9 4.2 2.4 5.7 6.3 6.1 8.6 12.8 5.8 17.1-2.3 3.5-7.4 4.4-13 2.2-3-1.2-6.5-0.4-8.7 2-1.4 1.5-2 1.3-2.4 1.2-1.9-0.7-4-4-4-7.2 0-2.8-1.5-5.5-4-6.9-2.1-1.2-4.5-1.3-6.7-0.5-0.6-0.7-1.4-2.1-1.8-4.4-0.5-2.9-0.3-8.6 5.4-14.8 1.3-1.4 2-3.2 2.1-5.1 2.6-72.2-19.7-178.2-22-189.1-0.1-0.4-0.1-0.6-0.2-0.8-0.9-4.3-5.1-7-9.4-6-4.3 0.9-7 5.1-6 9.4 0.1 0.3 6.2 28.7 11.9 65.7 7.3 47.3 10.8 87.9 10 117.5-10.6 13.3-9.3 29-2.3 37.5 2.5 3 5.5 5 8.7 5.8 2.3 6.1 6.9 11.3 12.6 13.5 2.1 0.8 4.1 1.2 6.2 1.2 3.3 0 6.5-1 9.5-2.9 11.1 2.6 21.8-1 27.4-9.8 5-7.8 6.2-21.2-5.8-34.4 0.1-15.1 0.3-30.5 0.6-45.4z"
          fill="#d4237a"></path>
    <path d="M515.7 780.6c-0.8 7.2-1.7 14.7-2.2 22.7-1.1 15.7-0.7 34.9-0.2 59.1 0.4 17.2 0.8 36.7 0.7 59.1 0 2.1-0.9 4.2-2.4 5.7-6.3 6.1-8.6 12.8-5.8 17.1 2.3 3.5 7.4 4.4 13 2.2 3-1.2 6.5-0.4 8.7 2 1.4 1.5 2 1.3 2.4 1.2 1.9-0.7 4-4 4-7.2 0-2.8 1.5-5.5 4-6.9 2.1-1.2 4.5-1.3 6.7-0.5 0.6-0.7 1.4-2.1 1.8-4.4 0.5-2.9 0.3-8.6-5.4-14.8-1.3-1.4-2-3.2-2.1-5.1-2.6-70.9 26.1-177 30.2-192.1l-60.4-3.6c12.1 20.8 9.7 41.7 7 65.5z"
          fill="#d4237a"></path>
    <path d="M579.3 711.5c-4.2-1.2-8.6 1.2-9.7 5.4-0.1 0.3-0.2 0.8-0.5 1.7-4.2 15.1-32.8 121.3-30.2 192.1 0.1 1.9 0.8 3.7 2.1 5.1 5.8 6.2 5.9 12 5.4 14.8-0.4 2.3-1.2 3.7-1.8 4.4-2.2-0.8-4.6-0.7-6.7 0.5-2.5 1.4-4 4-4 6.9 0 3.2-2.1 6.4-4 7.2-0.4 0.1-1 0.4-2.4-1.2-2.2-2.4-5.6-3.2-8.7-2-5.6 2.2-10.7 1.3-13-2.2-2.7-4.3-0.5-11 5.8-17.1 1.5-1.5 2.4-3.5 2.4-5.7 0-22.4-0.4-41.9-0.7-59.1-0.5-24.2-0.9-43.4 0.2-59.1 0.5-8 1.4-15.5 2.2-22.7 2.7-23.8 5.1-44.7-7-65.6-1-1.7-2-3.4-3.2-5.1-2.5-3.6-7.4-4.5-11-2s-4.5 7.4-2 11c12.3 17.7 10.3 35.4 7.5 59.9-0.8 7.4-1.7 15-2.3 23.4-1.1 16.4-0.7 35.9-0.2 60.5 0.3 16.3 0.7 34.7 0.7 55.6-12 13.2-10.7 26.7-5.8 34.4 5.6 8.8 16.3 12.5 27.4 9.8 2.9 1.9 6.2 2.9 9.5 2.9 2.1 0 4.2-0.4 6.2-1.2 5.7-2.2 10.3-7.4 12.6-13.5 3.2-0.8 6.2-2.8 8.7-5.8 3.8-4.7 5.8-11.4 5.4-18.2-0.3-4.9-1.9-12-7.7-19.3-1.7-72.4 29.9-185.1 30.2-186.2 1.2-4.1-1.2-8.4-5.4-9.6zM927.3 453.2c-16.9-18.5-45.8-24.6-75.6-15.8-19.6 5.8-48.7 20.8-75.7 59.2-25.4 36.2-43.3 84.8-52.9 144.5-27.4 169.2-71.7 178.1-72.1 178.1h0.2l-5.2 4.5-5.4 21.8 5.3 7.3h1.4c6.6 0 35-2.2 59.7-38 19.5-28.4 38.6-110.1 56.3-194.1 12.6-59.9 36.5-99.4 71-117.4 41.5-21.7 84.6-3.9 85-3.7 5.8 2.5 11.7 0.7 15.3-4.7 6.5-9.7 4.8-29.5-7.3-41.7zM751.7 618.3c-10.9 51.8-33.6 159.5-54.5 189.9-16.2 23.6-33.7 30.3-43.3 32.2l2.6-10.5c5.6-2.1 16-8.3 27.7-25.8 21.3-31.7 38.3-85.9 50.4-161 8.8-54.3 24.4-99 46.4-132.9 4.8-1.6 16.1-4.5 24.7-1.2-25.4 23-43.5 59.6-54 109.3z m77.1-125.4c-4.3 2.2-8.4 4.8-12.4 7.6-7.9-6.1-16.7-7.1-23.7-6.5 4-5 8-9.5 12-13.5 6.8-0.6 27.8-1.4 32.8 8.3-2.9 1.2-5.8 2.6-8.7 4.1z m20.7-8.2c-5.1-14.1-19.1-17.4-29.5-17.8 7.6-5.8 14.9-10 21.5-13.1 12.1 0.2 26.8 7.4 32.6 11.7 8.2 6.1 13.3 12.3 15.3 15.5-11.7-0.8-25.4-0.3-39.9 3.7z m76.8-0.8c-0.5 3.4-1.6 4.8-2 5.1-0.1 0-0.2 0-0.5-0.1-0.7-0.3-7.7-3.2-18.5-5.4-0.5-2.8-3.5-7.1-9-14-5.8-7.1-14-14.1-22.5-19.1-2.6-1.5-5.2-2.9-7.9-4 21.4-3.5 41 1.9 52.8 15l0.2 0.2c6.5 6.3 8.4 15.8 7.4 22.3z"
          fill="#d4237a"></path>
    <path d="M478 518.4c-25.6 0-52.2-3.2-78.8-9.4C290.8 483.7 195.1 410.7 182 362.3c-4.4-16.1 1.4-25.8 6.9-31.1 36.3-34.5 49.2-103.1 50.2-108.4C246.5 121.1 261.4 73.6 288.9 64c2.3-0.8 4.9-1.2 7.6-1.2 22.6 0 59.4 29.3 81.8 77.2 9.2-3.5 18.3-6.4 27.6-8.8 5.3-1.4 10.8-2.7 16.4-3.8 9.9-1.9 20.1-3.3 30.4-4.1 4.6-0.4 9.5-0.7 14.8-0.8 2.4-0.1 4.9-0.1 7.3-0.1 5.1 0 10.3 0.1 15.6 0.4 4.3 0.2 8.9 0.6 14.5 1.1 16.5 1.6 33.6 4.6 51 8.8 16.1-25.4 51-73.8 84.6-73.8 2.9 0 5.7 0.4 8.4 1.1 17.5 4.8 26.2 31.4 30.4 53 4.9 25 6.1 55.8 3.1 80.3-2.1 17.8 6.6 42.4 24 67.4 14.9 21.5 34.1 39.8 46.7 44.4 11.2 4.1 17.1 13.6 16.4 26.6-2.3 48.1-95.8 145.6-215.1 176.6-23.3 6.1-46.9 9.4-70.3 9.9-2 0.2-4.1 0.2-6.1 0.2z"
          fill="#d4237a"></path>
    <path d="M640.5 66.4c2.2 0 4.4 0.3 6.5 0.8 23.7 6.4 33.8 77.9 28.1 125.3-5.3 44.2 47.5 109.3 75.4 119.7 46.9 17.2-53.6 151.6-197.9 189.1-22 5.8-45 9.2-68.6 9.7-2 0-4 0.1-6 0.1-26.2 0-52.2-3.4-77.1-9.2C266.6 470.5 160.7 368.1 194 336.6c39.9-37.9 52.4-112.8 52.4-112.8C255 105.1 273.6 77.2 291.3 71c1.5-0.5 3.3-0.8 5.1-0.8 19.7 0 56.6 29.1 77.9 79.3 10.5-4.3 21.6-8.1 33.3-11.1 5.2-1.4 10.5-2.6 15.9-3.7 9.4-1.9 19.3-3.2 29.5-4 4.7-0.4 9.6-0.6 14.5-0.8 2.3-0.1 4.7-0.1 7.1-0.1 5 0 10 0.1 15.2 0.4 4.6 0.2 9.4 0.6 14.2 1.1 17.2 1.7 35.6 4.9 55.1 9.9 26.4-42.8 57.4-74.8 81.4-74.8m0-14.8v14.8-14.8c-15.4 0-32.2 8.6-50 25.4-12.6 12-25.7 28.3-38.1 47.4-16-3.6-31.7-6.2-46.8-7.7-5.7-0.5-10.4-0.9-14.8-1.1-5.4-0.3-10.8-0.4-16-0.4-2.5 0-5 0-7.5 0.1-5.5 0.2-10.5 0.4-15.3 0.8-10.5 0.8-21 2.2-31.2 4.2-5.7 1.1-11.4 2.4-16.9 3.9-7.3 1.9-14.6 4.2-21.9 6.7-7.9-15.7-19.9-34.4-37-50.5-17-16-34.2-24.9-48.5-24.9-3.5 0-6.9 0.5-10 1.6-15.4 5.3-26.5 19.1-35 43.2-9.2 26.3-15.7 66.1-19.8 121.6-1.3 6.9-13.9 71.7-47.9 103.9-10 9.4-13.1 23.1-9 38.4 6.9 25.5 34.2 56.7 75 85.5 43.4 30.8 95.9 54.4 147.7 66.5 27.2 6.4 54.3 9.6 80.5 9.6 2.1 0 4.2 0 6.3-0.1 24-0.5 48.2-3.9 72.1-10.2 55.2-14.4 110.1-44.1 154.5-83.6 18.9-16.9 35-34.8 46.6-51.9 12.3-18.2 18.8-34.3 19.5-47.9 0.4-7.7-1.1-14.5-4.5-20.2-3.7-6.3-9.5-11-16.8-13.7-9.5-3.5-27.4-19-43.2-41.7-16.1-23.2-24.6-46.5-22.7-62.3 3-25.2 1.8-56.8-3.2-82.6-6.7-34.4-18.7-54.1-35.8-58.7-3.3-0.8-6.8-1.3-10.3-1.3z"
          fill="#d4237a"></path>
    <path d="M750.4 312.2c-27.9-10.4-80.7-75.5-75.4-119.7 5.7-47.4-4.4-118.9-28.1-125.3-24.7-6.7-59.1 27.1-87.7 74-19.5-5-37.9-8.2-55.1-9.9-4.8-0.5-9.6-0.9-14.2-1.1-7.6-0.4-15.1-0.5-22.3-0.3-4.9 0.2-9.8 0.4-14.5 0.8-8.6 0.7-17.1 1.7-25.2 3.2-3.2 133.6 29.2 302.4 255.4 301.7 65.8-51.4 97.7-112.2 67.1-123.4z"
          fill="#d4237a"></path>
    <path d="M524.4 450.7c-1.2-1.7-3.5-2.1-5.2-0.9-12.6 8.8-22.5 11.5-29.6 8-6.3-3.2-9.5-11.1-11.1-17.2-0.7-2.7-1.2-5.4-1.5-7.5 12.4-0.4 25.9-12.4 25.8-19.1-0.3-13-52-12.8-52.2-2.4-0.2 11.3 8.4 18.2 18 20.6-0.3 7.7-2.5 21.2-10.4 25.5-8.2 4.5-20.6-1.8-29.6-7.9-1.7-1.1-4-0.7-5.1 1s-0.7 4 1 5.1c10.5 7.1 19.7 10.7 27.4 10.7 3.7 0 7-0.8 10-2.5 6-3.3 9.5-9.5 11.5-15.7 2.5 6.4 6.6 12.7 13 16 3 1.5 6.4 2.3 10 2.3 7.8 0 16.9-3.6 27.2-10.8 1.5-1.2 1.9-3.5 0.8-5.2z"
          fill="#d4237a"></path>
    <path d="M294.2 184.3c23.5-2.6 41.3-10.1 51.8-15.8 6.3-3.4 8.3-11.5 4.2-17.3-11.1-15.9-33.6-43.7-51.1-37.4-12 4.2-16.4 38.1-18 57.7-0.6 7.4 5.7 13.6 13.1 12.8z"
          fill="#d4237a"></path>
    <path d="M590.8 158c10.4 7.8 22.6 14.3 33.7 18.2 10 3.5 21-2.5 22.4-12.3 5.4-37.8 2.8-42.5-9.9-47.8-10.1-4.2-31.6 4.8-47.4 19.6-6.7 6.3-6.2 16.7 1.2 22.3z"
          fill="#d4237a"></path>
    <path d="M373.6 336m-47.6 0a47.6 47.6 0 1 0 95.2 0 47.6 47.6 0 1 0-95.2 0Z" fill="#d4237a"></path>
    <path d="M377.8 340m-27.9 0a27.9 27.9 0 1 0 55.8 0 27.9 27.9 0 1 0-55.8 0Z" fill="#d4237a"></path>
    <path d="M382.6 346.3m-9.8 0a9.8 9.8 0 1 0 19.6 0 9.8 9.8 0 1 0-19.6 0Z" fill="#d4237a"></path>
    <path d="M581 328.7m-47.6 0a47.6 47.6 0 1 0 95.2 0 47.6 47.6 0 1 0-95.2 0Z" fill="#d4237a"></path>
    <path d="M579.6 337.8m-27.5 0a27.5 27.5 0 1 0 55 0 27.5 27.5 0 1 0-55 0Z" fill="#d4237a"></path>
    <path d="M584.4 344m-9.7 0a9.7 9.7 0 1 0 19.4 0 9.7 9.7 0 1 0-19.4 0Z" fill="#d4237a"></path>
    <path d="M423.6 134.8c-11.9 34-10.9 58.6-15.4 62.8-8.5 7.9-11-27.5-0.5-59.2 5.2-1.4 10.5-2.6 15.9-3.6zM467.6 130c-16.5 39.7-14.7 69.5-19.7 74.1-9.8 9.1-11.6-39.4 5.2-73.3 4.7-0.4 9.6-0.7 14.5-0.8zM504.1 131.4c-12.6 34.9-11.4 60.3-16 64.6-9.1 8.4-11.3-32.6 1.8-65.6 4.7 0.1 9.4 0.5 14.2 1z"
          fill="#d4237a"></path>
    <path d="M214 326.9c25.6 4.8 38.9 14.9 39 15 2.4 1.9 5.9 1.5 7.8-0.9s1.5-5.9-0.9-7.8c-0.6-0.5-15.1-11.7-43-17.1-25.4-4.9-67.4-5.8-123.6 17.6-2.8 1.2-4.2 4.4-3 7.3 0.9 2.1 3 3.4 5.1 3.4 0.7 0 1.4-0.1 2.1-0.4C126.9 331.8 171 318.9 214 326.9zM111.1 373.5c0.6 0 1.2-0.1 1.9-0.3 0.9-0.3 86.4-30.2 119.9-6 2.5 1.8 6 1.2 7.7-1.3 1.8-2.5 1.2-6-1.3-7.7-38.3-27.5-126.4 3.3-130.1 4.6-2.9 1-4.4 4.2-3.4 7.1 0.9 2.1 3 3.6 5.3 3.6zM255.7 381.8c-0.5 0.2-54.7 19.4-78.9 22.5-24.4 3.1-64.1 1.4-64.5 1.3-3.1-0.1-5.7 2.2-5.8 5.3-0.1 3.1 2.2 5.7 5.3 5.8 0.9 0 12.1 0.5 26.2 0.5 12.9 0 28.2-0.4 40.2-2 25.4-3.2 79-22.2 81.2-23 2.9-1 4.4-4.2 3.4-7.1-1-2.8-4.2-4.3-7.1-3.3zM691.3 318.3c0.6 0 1.3-0.1 1.9-0.3 0.7-0.3 73.6-26.4 132.4-2.9 2.9 1.1 6.1-0.3 7.2-3.1s-0.3-6.1-3.1-7.2c-62.8-25-137.2 1.7-140.3 2.8-2.9 1.1-4.4 4.2-3.3 7.1 0.8 2.2 2.9 3.6 5.2 3.6zM832.3 348.7c-45.5-41.3-138.4-2.5-142.3-0.8-2.8 1.2-4.1 4.5-2.9 7.3 0.9 2.1 3 3.4 5.1 3.4 0.7 0 1.5-0.1 2.2-0.4 0.9-0.4 90.3-37.7 130.5-1.2 2.3 2.1 5.8 1.9 7.8-0.4 2-2.4 1.9-5.9-0.4-7.9zM813.3 379c-46.9 6.8-134.6-6.2-135.5-6.3-3-0.5-5.9 1.6-6.3 4.7-0.5 3 1.6 5.9 4.7 6.3 2.9 0.4 56.9 8.4 103.5 8.4 12.7 0 24.8-0.6 35.2-2.1 3-0.4 5.1-3.3 4.7-6.3-0.4-3-3.2-5.1-6.3-4.7z"
          fill="#d4237a"></path>
</svg>